<?xml version="1.0" encoding="utf-8"?><svg xmlns="http://www.w3.org/2000/svg" xmlns:xlink="http://www.w3.org/1999/xlink">
<symbol viewBox="0 0 22 13" id="down" xmlns="http://www.w3.org/2000/svg"><path d="M1 1l10 10L21 1"/></symbol>
<symbol viewBox="0 0 48 48" id="info-steps_1" xmlns="http://www.w3.org/2000/svg"><path d="M38.813 13.945c.518 0 .938-.42.938-.937V2.813A2.816 2.816 0 0036.938 0H2.813A2.816 2.816 0 000 2.813v42.374A2.816 2.816 0 002.813 48h34.125a2.816 2.816 0 002.813-2.813v-6.906a.938.938 0 00-1.875 0v6.907a.94.94 0 01-.938.937H2.813a.939.939 0 01-.938-.938V2.813a.94.94 0 01.938-.938h34.125c.517 0 .938.42.938.938v10.195c0 .518.42.937.937.937z"/><path d="M19.875 5.063c-4.755 0-8.624 3.869-8.624 8.625a8.602 8.602 0 002.808 6.362 8.591 8.591 0 005.816 2.262 8.592 8.592 0 005.918-2.356 8.601 8.601 0 002.707-6.268c0-4.756-3.869-8.626-8.625-8.626zm0 15.375a6.714 6.714 0 01-4.077-1.376 4.657 4.657 0 014.077-2.375c1.716 0 3.254.914 4.078 2.375a6.715 6.715 0 01-4.078 1.375zm-1.5-7.125v-.61a1.501 1.501 0 013 0v.61a1.501 1.501 0 01-3 0zm6.932 4.376a6.505 6.505 0 00-2.762-2.315 3.357 3.357 0 00.705-2.062v-.609a3.379 3.379 0 00-3.375-3.375 3.379 3.379 0 00-3.375 3.375v.61c0 .775.264 1.49.706 2.06a6.504 6.504 0 00-2.762 2.316 6.713 6.713 0 01-1.319-4.002 6.758 6.758 0 016.75-6.75 6.758 6.758 0 016.75 6.75c0 1.497-.49 2.881-1.318 4.002zm-.369 23.374h-5.063a.938.938 0 000 1.874h5.063a.938.938 0 000-1.874zm0-5.25H11.626a.938.938 0 000 1.874h13.312a.938.938 0 000-1.874zm0-5.25H11.626a.938.938 0 000 1.875h13.312a.938.938 0 000-1.876zM8.284 25.587a.945.945 0 00-.663-.274c-.247 0-.489.1-.663.274a.945.945 0 00-.275.663c0 .247.1.488.275.663a.946.946 0 00.663.274c.247 0 .488-.1.663-.274a.945.945 0 00.275-.663c0-.247-.1-.488-.275-.663zm0 5.25a.946.946 0 00-.663-.274c-.247 0-.488.1-.663.274a.945.945 0 00-.275.663c0 .247.1.488.275.663a.946.946 0 00.663.275c.247 0 .488-.1.663-.275a.945.945 0 00.275-.663c0-.247-.1-.488-.275-.663zm0 5.25a.946.946 0 00-.663-.275c-.247 0-.488.1-.663.275a.945.945 0 00-.275.663c0 .247.1.488.275.663a.944.944 0 00.663.275c.247 0 .489-.1.663-.275a.945.945 0 00.275-.663c0-.247-.1-.488-.275-.663zm16.654-10.774H11.626a.938.938 0 000 1.875h13.312a.938.938 0 000-1.875zm21.093-13.096a3.913 3.913 0 00-2.987-.393 3.912 3.912 0 00-2.391 1.835L28.855 34.093a.939.939 0 00-.12.364l-.83 7.439a.938.938 0 001.487.859l6.027-4.439a.936.936 0 00.256-.286l11.797-20.434a3.942 3.942 0 00-1.44-5.379zM30.006 39.974l.433-3.884 2.714 1.567-3.147 2.317zm4.514-3.693l-3.572-2.063 9.467-16.397 3.572 2.062-9.467 16.398zm11.329-19.622l-.924 1.6-3.573-2.062.924-1.6c.276-.478.72-.82 1.253-.962a2.049 2.049 0 011.565.206c.477.276.818.72.96 1.253.143.532.07 1.088-.205 1.565z"/></symbol>
<symbol viewBox="0 0 48 48" id="info-steps_2" xmlns="http://www.w3.org/2000/svg"><path d="M40.97 7.03A23.843 23.843 0 0024 0 23.843 23.843 0 007.03 7.03 23.843 23.843 0 000 24c0 6.41 2.496 12.438 7.03 16.97A23.843 23.843 0 0024 48c6.41 0 12.438-2.496 16.97-7.03A23.843 23.843 0 0048 24c0-6.41-2.496-12.438-7.03-16.97zM24 46.124C11.8 46.125 1.875 36.2 1.875 24S11.8 1.875 24 1.875 46.125 11.8 46.125 24 36.2 46.125 24 46.125z"/><path d="M43.885 20.152A20.23 20.23 0 0032.04 5.409a.938.938 0 00-.745 1.721 18.356 18.356 0 0110.748 13.376.938.938 0 001.842-.354zM28.355 4.218l-.025-.005a.937.937 0 10-.394 1.833l.01.002a.94.94 0 001.12-.71.938.938 0 00-.711-1.12zM16.916 40.962a18.326 18.326 0 01-10.96-13.467.937.937 0 10-1.841.354 20.251 20.251 0 004.212 8.977 20.366 20.366 0 007.866 5.865.938.938 0 00.723-1.73zm3.154.991l-.058-.013a.938.938 0 00-.407 1.83l.066.015a.938.938 0 00.399-1.832zm23-14.74a.938.938 0 00-1.115.717 18.327 18.327 0 01-14.46 14.112.937.937 0 10.354 1.84 20.157 20.157 0 0010.302-5.398 20.167 20.167 0 005.636-10.155.938.938 0 00-.717-1.116zM21.248 4.858a.937.937 0 00-1.097-.743A20.157 20.157 0 009.848 9.514a20.167 20.167 0 00-5.635 10.155.937.937 0 001.832.4 18.327 18.327 0 0114.46-14.113.937.937 0 00.743-1.098zM24 20.813A3.191 3.191 0 0020.812 24 3.191 3.191 0 0024 27.188 3.191 3.191 0 0027.188 24 3.191 3.191 0 0024 20.812zm0 4.5A1.314 1.314 0 0122.687 24c0-.724.59-1.313 1.313-1.313.724 0 1.313.59 1.313 1.313 0 .724-.59 1.313-1.313 1.313zm.016-21.563a.938.938 0 00-.938.938v2.1a.938.938 0 001.875 0v-2.1a.938.938 0 00-.937-.938zm-.032 35.855a.938.938 0 00-.937.938v2.769a.938.938 0 001.875 0v-2.769a.938.938 0 00-.938-.938zm19.329-16.527H40.78a.938.938 0 000 1.875h2.532a.938.938 0 000-1.875zm-35.907-.031H4.688a.938.938 0 000 1.875h2.718a.938.938 0 000-1.875z"/><path d="M21.75 23.063h-4.281a.938.938 0 000 1.875h4.281a.938.938 0 000-1.875zM24 12.031a.938.938 0 00-.938.938v8.781a.938.938 0 001.875 0v-8.781A.938.938 0 0024 12.03z"/></symbol>
<symbol viewBox="0 0 48 48" id="info-steps_3" xmlns="http://www.w3.org/2000/svg"><path d="M37.18 10.614l3.375-7.94a.937.937 0 00-.383-1.172L38.514.517a3.621 3.621 0 00-4.128.307l-.256.21a1.74 1.74 0 01-2.195-.001l-.01-.009a3.62 3.62 0 00-4.572.005 1.74 1.74 0 01-2.197.001l-.26-.212a3.624 3.624 0 00-4.114-.315l-1.701 1a.937.937 0 00-.386 1.178l3.397 7.926a11.606 11.606 0 00-5.93 4.815.937.937 0 101.595.984 9.73 9.73 0 015.119-4.09h13.496a9.691 9.691 0 016.564 9.19v2.487a.938.938 0 001.875 0v-2.487a11.56 11.56 0 00-7.633-10.892zm-1.965-.173H24.06l-3.317-7.74.99-.582a1.741 1.741 0 011.977.151l.26.213a3.621 3.621 0 004.572-.004 1.74 1.74 0 012.197-.002l.01.009a3.622 3.622 0 004.567 0l.256-.21a1.74 1.74 0 011.984-.147l.952.566-3.294 7.746zm9.323 16.431a.945.945 0 00-.663-.275c-.247 0-.488.1-.663.275a.946.946 0 00-.275.663.941.941 0 00.938.938.941.941 0 00.938-.938c0-.247-.1-.489-.275-.663zM14.342 41.818a.945.945 0 00-.662-.275c-.247 0-.489.1-.663.275a.944.944 0 00-.275.663c0 .246.1.488.275.662a.945.945 0 00.663.275.94.94 0 00.662-.275.945.945 0 00.275-.663.94.94 0 00-.275-.662z"/><path d="M48 39.18a3.553 3.553 0 00-1.157-2.624A3.554 3.554 0 0048 33.93a3.567 3.567 0 00-3.563-3.563H34.313a3.567 3.567 0 00-3.563 3.563c0 1.037.446 1.973 1.157 2.625a3.554 3.554 0 000 5.25 3.554 3.554 0 00-.731 4.312h-3.818v-3.666c0-4.958-3.811-9.041-8.657-9.477a.941.941 0 00-.405-.028l-.047-.001a6.523 6.523 0 001.974-4.678V18.93a.938.938 0 00-.937-.937H12.34a5.211 5.211 0 00-5.206 5.206v5.069c0 1.831.758 3.489 1.975 4.678l-.048.001a.942.942 0 00-.404.028C3.81 33.411 0 37.495 0 42.453v4.604c0 .517.42.937.938.937h43.5A3.567 3.567 0 0048 44.43a3.553 3.553 0 00-1.157-2.624A3.553 3.553 0 0048 39.18zM9.01 24.513v-1.314a3.334 3.334 0 013.331-3.33h6.007v2.509a2.301 2.301 0 01-2.299 2.299H9.01v-.164zm0 3.756V26.55h7.039c.85 0 1.64-.256 2.3-.693v2.41a4.674 4.674 0 01-4.67 4.668 4.674 4.674 0 01-4.669-4.668zm7.159 6.543l-2.49 2.49-2.49-2.49h4.98zm9.314 11.307H1.875V43.42h7.65a.938.938 0 000-1.875H1.931a7.653 7.653 0 016.664-6.676l4.421 4.421a.935.935 0 001.326 0l4.421-4.421c3.78.456 6.72 3.682 6.72 7.583v3.666zm18.954 0H34.313a1.69 1.69 0 01-1.687-1.688c0-.93.757-1.687 1.688-1.687h10.124a1.69 1.69 0 011.688 1.688 1.69 1.69 0 01-1.688 1.687zm0-5.25H34.313a1.69 1.69 0 01-1.688-1.688c0-.93.757-1.687 1.688-1.687h10.124a1.69 1.69 0 011.688 1.688 1.69 1.69 0 01-1.688 1.687zm0-5.25H34.313a1.69 1.69 0 01-1.688-1.688c0-.93.757-1.687 1.688-1.687h10.124a1.69 1.69 0 011.688 1.688 1.69 1.69 0 01-1.688 1.687z"/><path d="M35.064 21.374c-.75 0-1.36-.516-1.36-1.149s.61-1.149 1.36-1.149c.75 0 1.361.516 1.361 1.15a.938.938 0 001.875 0c0-1.364-.97-2.518-2.298-2.895v-.14a.938.938 0 00-1.875 0v.14c-1.329.377-2.299 1.531-2.299 2.894 0 1.667 1.452 3.024 3.236 3.024.75 0 1.361.515 1.361 1.148 0 .633-.61 1.149-1.36 1.149-.751 0-1.362-.516-1.362-1.149a.938.938 0 00-1.875 0c0 1.363.97 2.517 2.299 2.894v.06a.938.938 0 001.875 0v-.06c1.328-.377 2.298-1.531 2.298-2.894 0-1.667-1.451-3.023-3.236-3.023z"/></symbol>
<symbol viewBox="0 0 12.121 21.414" id="light-next" xmlns="http://www.w3.org/2000/svg"><path d="M.707 20.707l10-10-10-10"/></symbol>
<symbol viewBox="0 0 34 34" id="vantages_1" xmlns="http://www.w3.org/2000/svg"><path d="M4.25 15.582l26.917-12.75-12.75 26.917-2.834-11.334L4.25 15.582z"/></symbol>
<symbol viewBox="0 0 34 34" id="vantages_10" xmlns="http://www.w3.org/2000/svg"><path d="M14.167 4.25H4.25v9.917h9.917V4.25zm15.583 0h-9.916v9.917h9.916V4.25zm0 15.583h-9.916v9.917h9.916v-9.917zm-15.583 0H4.25v9.917h9.917v-9.917z"/></symbol>
<symbol viewBox="0 0 34 34" id="vantages_11" xmlns="http://www.w3.org/2000/svg"><path d="M26.917 7.083L7.083 26.917M9.208 12.75a3.542 3.542 0 100-7.083 3.542 3.542 0 000 7.083zm15.584 15.583a3.542 3.542 0 100-7.083 3.542 3.542 0 000 7.083z"/></symbol>
<symbol viewBox="0 0 34 34" id="vantages_12" xmlns="http://www.w3.org/2000/svg"><path d="M26.917 5.668H7.083A2.833 2.833 0 004.25 8.501v19.834a2.833 2.833 0 002.833 2.833h19.834a2.833 2.833 0 002.833-2.833V8.5a2.833 2.833 0 00-2.833-2.833zm-4.249-2.832v5.667M11.332 2.836v5.667M4.25 14.168h25.5"/></symbol>
<symbol viewBox="0 0 34 34" id="vantages_2" xmlns="http://www.w3.org/2000/svg"><path d="M5.668 21.253s1.417-1.417 5.667-1.417 7.083 2.833 11.333 2.833 5.667-1.416 5.667-1.416v-17s-1.417 1.416-5.667 1.416-7.083-2.833-11.333-2.833-5.667 1.417-5.667 1.417v17zm0 9.914V21.25"/></symbol>
<symbol viewBox="0 0 34 34" id="vantages_3" xmlns="http://www.w3.org/2000/svg"><path d="M26.917 5.668H7.083A2.833 2.833 0 004.25 8.501v19.834a2.833 2.833 0 002.833 2.833h19.834a2.833 2.833 0 002.833-2.833V8.5a2.833 2.833 0 00-2.833-2.833zm-4.249-2.832v5.667M11.332 2.836v5.667M4.25 14.168h25.5"/></symbol>
<symbol viewBox="0 0 34 34" id="vantages_4" xmlns="http://www.w3.org/2000/svg"><path d="M15.583 26.917c6.26 0 11.334-5.074 11.334-11.334 0-6.259-5.074-11.333-11.334-11.333C9.324 4.25 4.25 9.324 4.25 15.583c0 6.26 5.074 11.334 11.333 11.334zm14.165 2.831l-6.162-6.162m-12.254-8h8.5"/></symbol>
<symbol viewBox="0 0 34 34" id="vantages_5" xmlns="http://www.w3.org/2000/svg"><path d="M26.916 15.582H7.083a2.833 2.833 0 00-2.833 2.834v9.916a2.835 2.835 0 002.833 2.834h19.833a2.835 2.835 0 002.834-2.834v-9.916a2.834 2.834 0 00-2.834-2.834z"/><path d="M9.918 15.585V9.918a7.082 7.082 0 016.372-7.055 7.082 7.082 0 017.654 5.638"/></symbol>
<symbol viewBox="0 0 36 37" id="vantages_6" xmlns="http://www.w3.org/2000/svg"><path d="M10.653 33.197h1.95v-6.409h11.856V24.99H12.603v-4.377h9.321c5.461 0 8.463-3.048 8.463-7.386 0-4.377-3.002-7.387-8.463-7.387H10.653v13.014H6.948v1.759h3.705v4.377H6.948v1.798h3.705v6.409zm1.95-14.343V7.638h9.165c4.252 0 6.67 2.032 6.67 5.589 0 3.595-2.418 5.627-6.67 5.627h-9.165z"/></symbol>
<symbol viewBox="0 0 36 37" id="vantages_7" xmlns="http://www.w3.org/2000/svg"><circle cx="18" cy="18.075" r="13.6"/><path d="M35 18.075H23.1m0 0l3.825 2.975M23.1 18.075l3.825-2.975M1 18.075h11.9m0 0L9.075 21.05m3.825-2.975L9.075 15.1m8.5-14.025v11.9m0 0L14.6 9.15m2.975 3.825L20.55 9.15M18 35.925v-11.9m0 0l2.976 3.825M18 24.025l-2.975 3.825"/></symbol>
<symbol viewBox="0 0 41 26" id="vantages_8" xmlns="http://www.w3.org/2000/svg"><path d="M35.667 1.104H5.334a4.338 4.338 0 00-4.333 4.342v15.198a4.338 4.338 0 004.333 4.342h30.333A4.338 4.338 0 0040 20.644V5.446a4.338 4.338 0 00-4.333-4.342z"/><path d="M25.528 13.183c0 3.267-2.17 5.589-4.48 5.589-2.309 0-4.479-2.322-4.479-5.589 0-3.267 2.17-5.589 4.48-5.589 2.309 0 4.479 2.322 4.479 5.59z"/></symbol>
<symbol viewBox="0 0 34 34" id="vantages_9" xmlns="http://www.w3.org/2000/svg"><path d="M19.833 2.833H8.5a2.833 2.833 0 00-2.833 2.834v22.666A2.833 2.833 0 008.5 31.167h17a2.833 2.833 0 002.833-2.834v-17l-8.5-8.5z"/><path d="M19.834 2.833v8.5h8.5m-5.667 7.084H11.333m11.334 5.666H11.333m2.834-11.333h-2.833"/></symbol>
<symbol viewBox="0 0 32 39" id="vector" xmlns="http://www.w3.org/2000/svg"><path d="M31.913 6.094C25.32 6.094 20.27 4.192 15.999 0 11.73 4.192 6.68 6.094.088 6.094.088 17.01-2.15 32.649 15.999 39 34.15 32.65 31.913 17.01 31.913 6.094z"/></symbol>
</svg>